<svg xmlns="http://www.w3.org/2000/svg" version="1.1" xmlns:xlink="http://www.w3.org/1999/xlink" xmlns:svgjs="http://svgjs.dev/svgjs" width="1500" height="935" viewBox="0 0 1500 935"><g transform="matrix(1,0,0,1,-0.9090909090909918,0.3785425101214628)"><svg viewBox="0 0 396 247" data-background-color="#ffffff" preserveAspectRatio="xMidYMid meet" height="935" width="1500" xmlns="http://www.w3.org/2000/svg" xmlns:xlink="http://www.w3.org/1999/xlink"><g id="tight-bounds" transform="matrix(1,0,0,1,0.2400000000000091,-0.09999999999999432)"><svg viewBox="0 0 395.52 247.2" height="247.2" width="395.52"><g><svg></svg></g><g><svg viewBox="0 0 395.52 247.2" height="247.2" width="395.52"><g transform="matrix(1,0,0,1,75.54432,108.66358641932969)"><svg viewBox="0 0 244.43135999999998 29.872827161340602" height="29.872827161340602" width="244.43135999999998"><g><svg viewBox="0 0 244.43135999999998 29.872827161340602" height="29.872827161340602" width="244.43135999999998"><g><svg viewBox="0 0 244.43136 29.872827161340606" height="29.872827161340602" width="244.43135999999998"><g><svg viewBox="0 0 244.43136 29.872827161340606" height="29.872827161340606" width="244.43136"><g id="textblocktransform"><svg viewBox="0 0 244.43136 29.872827161340606" height="29.872827161340606" width="244.43136" id="textblock"><g><svg viewBox="0 0 244.43136 29.872827161340606" height="29.872827161340606" width="244.43136"><g transform="matrix(1,0,0,1,0,0)"><svg width="244.43136" viewBox="4.05 -38.7 320.71999999999997 39.2" height="29.872827161340606" data-palette-color="#41907a"><path d="M4.05-20.7L8.2-20.7 8.6-15.65 8.4-16.45Q9.4-18.75 11.65-20.13 13.9-21.5 16.85-21.5L16.85-21.5Q19.8-21.5 21.68-19.78 23.55-18.05 23.6-15.3L23.6-15.3 23.6 0 18.9 0 18.9-13.65Q18.85-15.35 17.93-16.43 17-17.5 15.05-17.5L15.05-17.5Q13.25-17.5 11.8-16.5 10.35-15.5 9.53-13.75 8.7-12 8.7-9.7L8.7-9.7 8.7 0 4.05 0 4.05-20.7ZM40.3 0.5L40.3 0.5Q37.4 0.5 35.02-0.75 32.65-2 31.27-4.42 29.9-6.85 29.9-10.35L29.9-10.35Q29.9-13.8 31.35-16.32 32.8-18.85 35.22-20.2 37.65-21.55 40.55-21.55L40.55-21.55Q43.45-21.55 45.45-20.23 47.45-18.9 48.5-17.1L48.5-17.1 48.2-16.3 48.65-20.7 52.95-20.7 52.95 0 48.3 0 48.3-5.4 48.8-4.2Q48.6-3.7 47.92-2.93 47.25-2.15 46.12-1.35 45-0.55 43.55-0.03 42.1 0.5 40.3 0.5ZM41.55-3.35L41.55-3.35Q43.3-3.35 44.7-4 46.1-4.65 47.02-5.83 47.95-7 48.3-8.65L48.3-8.65 48.3-12.7Q47.9-14.2 46.9-15.33 45.9-16.45 44.5-17.07 43.1-17.7 41.4-17.7L41.4-17.7Q39.55-17.7 38-16.8 36.45-15.9 35.52-14.3 34.6-12.7 34.6-10.55L34.6-10.55Q34.6-8.55 35.55-6.9 36.5-5.25 38.1-4.3 39.7-3.35 41.55-3.35ZM63-20.6L63-29.8 67.65-29.8 67.65-20.6 73.35-20.6 73.35-16.95 67.65-16.95 67.65 0 63 0 63-16.95 59.2-16.95 59.2-20.6 63-20.6ZM83.59 0L78.94 0 78.94-38.7 83.49-38.7 83.49-15.9 83.39-16.75Q84.44-18.8 86.62-20.15 88.79-21.5 91.74-21.5L91.74-21.5Q94.69-21.5 96.57-19.78 98.44-18.05 98.49-15.3L98.49-15.3 98.49 0 93.79 0 93.79-13.65Q93.74-15.35 92.82-16.43 91.89-17.5 89.94-17.5L89.94-17.5Q88.14-17.5 86.69-16.48 85.24-15.45 84.42-13.7 83.59-11.95 83.59-9.7L83.59-9.7 83.59 0ZM115.19 0.5L115.19 0.5Q112.29 0.5 109.92-0.75 107.54-2 106.17-4.42 104.79-6.85 104.79-10.35L104.79-10.35Q104.79-13.8 106.24-16.32 107.69-18.85 110.12-20.2 112.54-21.55 115.44-21.55L115.44-21.55Q118.34-21.55 120.34-20.23 122.34-18.9 123.39-17.1L123.39-17.1 123.09-16.3 123.54-20.7 127.84-20.7 127.84 0 123.19 0 123.19-5.4 123.69-4.2Q123.49-3.7 122.82-2.93 122.14-2.15 121.02-1.35 119.89-0.55 118.44-0.03 116.99 0.5 115.19 0.5ZM116.44-3.35L116.44-3.35Q118.19-3.35 119.59-4 120.99-4.65 121.92-5.83 122.84-7 123.19-8.65L123.19-8.65 123.19-12.7Q122.79-14.2 121.79-15.33 120.79-16.45 119.39-17.07 117.99-17.7 116.29-17.7L116.29-17.7Q114.44-17.7 112.89-16.8 111.34-15.9 110.42-14.3 109.49-12.7 109.49-10.55L109.49-10.55Q109.49-8.55 110.44-6.9 111.39-5.25 112.99-4.3 114.59-3.35 116.44-3.35ZM135.89-20.7L140.04-20.7 140.44-15.65 140.24-16.45Q141.24-18.75 143.49-20.13 145.74-21.5 148.69-21.5L148.69-21.5Q151.64-21.5 153.51-19.78 155.39-18.05 155.44-15.3L155.44-15.3 155.44 0 150.74 0 150.74-13.65Q150.69-15.35 149.76-16.43 148.84-17.5 146.89-17.5L146.89-17.5Q145.09-17.5 143.64-16.5 142.19-15.5 141.36-13.75 140.54-12 140.54-9.7L140.54-9.7 140.54 0 135.89 0 135.89-20.7ZM163.54 0L163.54-20.7 168.19-20.7 168.19 0 163.54 0ZM163.19-28.2L163.19-28.2Q163.19-29.3 164.06-30.05 164.94-30.8 165.99-30.8L165.99-30.8Q167.04-30.8 167.86-30.05 168.69-29.3 168.69-28.2L168.69-28.2Q168.69-27.05 167.86-26.33 167.04-25.6 165.99-25.6L165.99-25.6Q164.94-25.6 164.06-26.35 163.19-27.1 163.19-28.2ZM185.83 0.5L185.83 0.5Q182.28 0.5 179.73-0.93 177.18-2.35 175.81-4.83 174.43-7.3 174.43-10.5L174.43-10.5Q174.43-13.55 175.98-16.05 177.53-18.55 180.13-20.05 182.73-21.55 185.93-21.55L185.93-21.55Q190.03-21.55 192.73-19.15 195.43-16.75 196.38-12.55L196.38-12.55 179.33-6.55 178.23-9.3 192.23-14.4 191.23-13.75Q190.63-15.4 189.23-16.63 187.83-17.85 185.58-17.85L185.58-17.85Q183.68-17.85 182.18-16.93 180.68-16 179.83-14.4 178.98-12.8 178.98-10.75L178.98-10.75Q178.98-8.6 179.88-6.98 180.78-5.35 182.36-4.42 183.93-3.5 185.93-3.5L185.93-3.5Q187.28-3.5 188.56-4 189.83-4.5 190.93-5.3L190.93-5.3 193.08-1.85Q191.53-0.8 189.61-0.15 187.68 0.5 185.83 0.5ZM202.23 0L202.23-38.7 206.88-38.7 206.88 0 202.23 0ZM229.33-4.85L231.73-1.9Q230.33-0.8 228.38-0.15 226.43 0.5 224.48 0.5L224.48 0.5Q221.08 0.5 218.53-0.85 215.98-2.2 214.55-4.63 213.13-7.05 213.13-10.35L213.13-10.35Q213.13-13.65 214.65-16.1 216.18-18.55 218.65-19.88 221.13-21.2 223.98-21.2L223.98-21.2Q226.48-21.2 228.45-20.5 230.43-19.8 231.83-18.6L231.83-18.6 229.53-15.6Q228.63-16.3 227.33-16.85 226.03-17.4 224.38-17.4L224.38-17.4Q222.58-17.4 221.05-16.48 219.53-15.55 218.65-13.95 217.78-12.35 217.78-10.35L217.78-10.35Q217.78-8.45 218.68-6.83 219.58-5.2 221.18-4.28 222.78-3.35 224.83-3.35L224.83-3.35Q226.18-3.35 227.3-3.75 228.43-4.15 229.33-4.85L229.33-4.85ZM246.33 0.5L246.33 0.5Q243.43 0.5 241.05-0.75 238.68-2 237.3-4.42 235.93-6.85 235.93-10.35L235.93-10.35Q235.93-13.8 237.38-16.32 238.83-18.85 241.25-20.2 243.68-21.55 246.58-21.55L246.58-21.55Q249.48-21.55 251.48-20.23 253.48-18.9 254.53-17.1L254.53-17.1 254.23-16.3 254.68-20.7 258.98-20.7 258.98 0 254.33 0 254.33-5.4 254.83-4.2Q254.63-3.7 253.95-2.93 253.28-2.15 252.15-1.35 251.03-0.55 249.58-0.03 248.13 0.5 246.33 0.5ZM247.58-3.35L247.58-3.35Q249.33-3.35 250.73-4 252.13-4.65 253.05-5.83 253.98-7 254.33-8.65L254.33-8.65 254.33-12.7Q253.93-14.2 252.93-15.33 251.93-16.45 250.53-17.07 249.13-17.7 247.43-17.7L247.43-17.7Q245.58-17.7 244.03-16.8 242.48-15.9 241.55-14.3 240.63-12.7 240.63-10.55L240.63-10.55Q240.63-8.55 241.58-6.9 242.53-5.25 244.13-4.3 245.73-3.35 247.58-3.35ZM267.02-20.7L271.17-20.7 271.62-14.7 271.37-15.5Q272.17-17.4 273.7-18.73 275.22-20.05 276.9-20.78 278.57-21.5 279.82-21.5L279.82-21.5 279.57-16.9Q277.22-17.05 275.45-16 273.67-14.95 272.65-13.2 271.62-11.45 271.62-9.45L271.62-9.45 271.62 0 267.02 0 267.02-20.7ZM294.52 0.5L294.52 0.5Q290.97 0.5 288.42-0.93 285.87-2.35 284.5-4.83 283.12-7.3 283.12-10.5L283.12-10.5Q283.12-13.55 284.67-16.05 286.22-18.55 288.82-20.05 291.42-21.55 294.62-21.55L294.62-21.55Q298.72-21.55 301.42-19.15 304.12-16.75 305.07-12.55L305.07-12.55 288.02-6.55 286.92-9.3 300.92-14.4 299.92-13.75Q299.32-15.4 297.92-16.63 296.52-17.85 294.27-17.85L294.27-17.85Q292.37-17.85 290.87-16.93 289.37-16 288.52-14.4 287.67-12.8 287.67-10.75L287.67-10.75Q287.67-8.6 288.57-6.98 289.47-5.35 291.05-4.42 292.62-3.5 294.62-3.5L294.62-3.5Q295.97-3.5 297.25-4 298.52-4.5 299.62-5.3L299.62-5.3 301.77-1.85Q300.22-0.8 298.3-0.15 296.37 0.5 294.52 0.5ZM316.72 0.4L316.72 0.4Q314.52 0.4 312.44-0.38 310.37-1.15 309.02-2.7L309.02-2.7 310.97-5.4Q312.27-4.15 313.64-3.53 315.02-2.9 316.37-2.9L316.37-2.9Q317.37-2.9 318.22-3.15 319.07-3.4 319.59-3.98 320.12-4.55 320.12-5.55L320.12-5.55Q320.12-6.65 319.39-7.3 318.67-7.95 317.54-8.35 316.42-8.75 315.17-9.1L315.17-9.1Q312.62-9.95 311.27-11.45 309.92-12.95 309.92-15.1L309.92-15.1Q309.92-16.75 310.74-18.18 311.57-19.6 313.19-20.5 314.82-21.4 317.22-21.4L317.22-21.4Q319.37-21.4 321.07-20.88 322.77-20.35 324.27-19.15L324.27-19.15 322.42-16.25Q321.52-17.2 320.27-17.65 319.02-18.1 318.02-18.15L318.02-18.15Q317.17-18.2 316.39-17.9 315.62-17.6 315.12-17.05 314.62-16.5 314.62-15.75L314.62-15.75Q314.62-14.7 315.32-14.05 316.02-13.4 317.14-13.03 318.27-12.65 319.37-12.25L319.37-12.25Q320.92-11.8 322.12-11.05 323.32-10.3 324.04-9.2 324.77-8.1 324.77-6.45L324.77-6.45Q324.77-4.6 323.89-3.03 323.02-1.45 321.24-0.53 319.47 0.4 316.72 0.4Z" opacity="1" transform="matrix(1,0,0,1,0,0)" fill="#41907a" class="wordmark-text-0" data-fill-palette-color="primary" id="text-0"></path></svg></g></svg></g></svg></g></svg></g></svg></g></svg></g></svg></g><path d="M175.652 102.664L175.652 38.507 5.466 38.507 5.466 208.693 175.652 208.693 175.652 144.536 172.958 144.536 172.958 205.999 8.16 205.999 8.16 41.201 172.958 41.201 172.958 102.664Z" fill="#41907a" stroke="transparent" data-fill-palette-color="tertiary"></path></svg></g><defs></defs></svg><rect width="395.52" height="247.2" fill="none" stroke="none" visibility="hidden"></rect></g></svg></g></svg>